<?xml version="1.0" standalone="no"?>
<!DOCTYPE svg PUBLIC "-//W3C//DTD SVG 20010904//EN"
 "http://www.w3.org/TR/2001/REC-SVG-20010904/DTD/svg10.dtd">
<svg version="1.0" xmlns="http://www.w3.org/2000/svg"
 width="700.000000pt" height="700.000000pt" viewBox="0 0 700.000000 700.000000"
 preserveAspectRatio="xMidYMid meet">
<metadata>
Created by potrace 1.14, written by Peter Selinger 2001-2017
</metadata>
<g transform="translate(0.000000,700.000000) scale(0.100000,-0.100000)"
fill="#000000" stroke="none">
<path d="M3225 6644 c-640 -67 -1205 -293 -1685 -674 -135 -107 -403 -375
-510 -510 -348 -438 -571 -960 -657 -1535 -26 -172 -26 -678 0 -850 72 -478
234 -911 485 -1295 209 -320 497 -622 802 -840 419 -300 886 -488 1415 -567
172 -25 677 -26 850 0 711 106 1324 414 1817 914 133 135 220 237 318 373 321
447 517 962 576 1510 22 208 15 595 -14 785 -80 513 -267 973 -562 1385 -100
139 -185 239 -328 383 -421 426 -965 727 -1552 857 -222 50 -342 62 -635 65
-154 2 -298 1 -320 -1z m535 -185 c1263 -114 2311 -1006 2620 -2230 116 -459
119 -960 8 -1424 -254 -1069 -1092 -1916 -2159 -2185 -532 -134 -1112 -116
-1634 50 -1056 338 -1844 1246 -2024 2335 -159 956 148 1915 830 2596 495 494
1132 793 1829 858 127 12 400 12 530 0z"/>
<path d="M1345 4856 c-43 -19 -94 -74 -106 -116 -6 -22 -9 -167 -7 -396 l3
-360 24 -36 c13 -19 40 -46 59 -59 l36 -24 870 -3 c968 -3 924 -6 985 63 40
46 51 91 51 213 l0 102 244 0 244 0 4 -127 c5 -140 14 -171 68 -216 17 -15 45
-29 63 -32 18 -3 429 -4 914 -3 877 3 882 3 910 24 15 11 38 36 51 54 22 33
22 35 22 425 0 390 0 392 -22 425 -13 18 -36 43 -51 54 -28 21 -33 21 -910 24
-485 1 -896 0 -914 -3 -18 -3 -46 -17 -63 -32 -54 -45 -63 -76 -68 -215 l-4
-128 -244 0 -244 0 0 103 c0 56 -5 119 -10 139 -14 48 -53 94 -101 118 -37 19
-64 20 -906 20 -695 -1 -874 -3 -898 -14z"/>
<path d="M1370 2849 c-82 -164 -84 -171 -66 -185 31 -22 40 -17 64 31 l22 45
97 -46 c327 -152 619 -258 929 -336 l123 -30 3 -282 3 -283 30 -48 c22 -36 45
-57 85 -77 l54 -29 281 3 282 3 48 30 c35 21 56 45 74 80 25 48 26 56 29 272
l3 223 69 0 69 0 3 -573 3 -573 26 -49 c18 -35 39 -59 74 -80 l48 -30 282 -3
281 -3 54 29 c40 20 63 41 85 77 l30 48 3 633 3 632 92 22 c319 78 626 188
960 344 l97 46 22 -45 c24 -48 33 -53 64 -31 18 14 16 21 -66 185 -46 94 -89
171 -95 171 -6 0 -20 -6 -31 -14 -19 -14 -18 -15 4 -61 l22 -46 -122 -59
c-305 -146 -680 -274 -1009 -345 -327 -70 -534 -90 -919 -89 -265 0 -342 4
-485 22 -489 64 -971 206 -1403 412 l-123 59 21 40 c11 22 20 44 20 49 0 7
-42 32 -53 32 -1 0 -41 -77 -87 -171z"/>
</g>
</svg>
