<?xml version="1.0" encoding="utf-8"?>
<!-- Generator: Adobe Illustrator 26.0.2, SVG Export Plug-In . SVG Version: 6.00 Build 0)  -->
<svg version="1.1" id="Layer_1" xmlns="http://www.w3.org/2000/svg" xmlns:xlink="http://www.w3.org/1999/xlink" x="0px" y="0px"
	 viewBox="0 0 150 30" style="enable-background:new 0 0 150 30;" xml:space="preserve">
<style type="text/css">
	.st0{display:none;}
	.st1{display:inline;}
	.st2{fill:#FFFFFF;stroke:#CCCCFF;stroke-width:0.5;stroke-miterlimit:10;}
	.st3{fill:#CCCCFF;}
</style>
<g id="Layer_2_00000170275064079794258880000011974059823242793102_" class="st0">
	<rect class="st1" width="150" height="30"/>
</g>
<g id="Layer_1_00000082351199967625506600000014458136718135045253_">
	<g id="Layer_1_00000037689300544270731070000010061805389958271148_">
	</g>
	<g>
		<path class="st2" d="M12,21c-0.1,0.6-0.4,1.1-0.6,1.2c-0.1,0-0.2,0-0.4,0c-0.1,0-0.2,0-0.4,0L8,23.6c-0.1,0-0.1,0.1-0.2,0.4
			s-0.1,0.4-0.2,0.4c-0.2,0.1-0.8,0-1.6-0.4c-0.9-0.2-1.4-0.6-1.5-0.9S4.4,22.5,4.4,22c0-0.3,0-0.4,0-0.5V6.7c0-0.1-0.1-0.2-0.1-0.4
			C4,6.2,4,6.2,4,6.1c0-0.2,0.2-0.5,0.6-0.6c0.2,0,0.8,0.1,1.6,0.4C7.1,6.2,7.6,6.6,7.6,7c0,0.1-0.1,0.4-0.2,0.6
			C7.2,7.7,7.2,8,7.2,8.1v12.1l1.9-1c0.1-0.1,0.2-0.3,0.6-0.4c0.1,0,0.6,0.3,1.4,0.9C11.6,20.4,12,20.9,12,21z"/>
		<path class="st3" d="M18.7,12.2c0.8,1,1.1,2.6,1.1,5c0,1.9-0.2,3.4-0.9,4.6c-0.6,1.5-1.5,2.1-2.5,2.1c-1.1,0-1.9-0.6-2.5-2
			c-0.5-1.1-0.8-2.6-0.8-4.4c0-1.5,0.2-2.9,0.6-4.1s1-2.1,1.6-2.4c0.4-0.1,0.8-0.1,1-0.1C17.4,11.2,18.1,11.6,18.7,12.2z M16.7,13.4
			c-0.4,0-0.8,0.4-1,1.4c-0.2,0.9-0.4,1.7-0.4,2.7c0,1.4,0,2.4,0.1,2.9c0.1,1,0.5,1.6,1,1.6c0.4,0,0.6-0.5,0.9-1.6
			c0.2-1.1,0.4-2.4,0.4-3.6C17.9,14.5,17.5,13.4,16.7,13.4z"/>
		<path class="st3" d="M30.1,22.1c0,0.4-0.2,0.6-0.5,0.9c-0.4,0.2-0.6,0.4-1,0.4c-0.6,0-1-0.2-1.1-0.6c0.1-4.5,0-6.7-0.4-6.9
			c-0.3,0-1,2-2.1,6c0,0.5,0,0.9,0,1.4s-0.1,0.9-0.4,1.1s-0.5,0.4-0.8,0.4c-0.4,0-0.9-0.2-1.4-0.9c-0.1-0.1-0.2-1.2-0.2-3.4
			c0,1.2,0-1.1,0-7.1c0-0.1,0-0.2,0-0.5s0-0.4,0-0.5c0-0.2,0-0.5,0.1-0.8c0.1-0.2,0.4-0.4,0.6-0.4c0.4,0,0.6,0.1,1,0.4
			c0.4,0.2,0.5,0.5,0.6,0.8c0,0.1,0.1,0.2,0.1,0.4c0,0.1,0,0.4-0.1,0.6c-0.1,0.2-0.1,0.5-0.1,0.6v3c0.8-2,1.2-3.3,1.6-3.9
			c0.6-1.1,1.4-1.6,2.2-1.5c0.5,0,0.9,0.6,1.1,1.8c0.1,0.9,0.2,2.1,0.2,3.7c0,1.2,0,2.6,0,3.9c0,0.1,0.1,0.2,0.3,0.5
			C30.1,21.7,30.1,22,30.1,22.1z"/>
		<path class="st3" d="M38.4,12c0,1.2,0.1,3.4,0.1,6.2c0,2,0.1,3.5,0.1,4.4c0,1.9-0.1,3.2-0.4,4c-0.2,0.8-0.8,1.1-1.5,1.1
			c-0.9,0.1-1.8-0.2-2.5-0.9c-0.4-0.1-0.6-0.3-0.6-0.3c-0.2-0.1-0.4-0.4-0.4-0.8c-0.1-0.6,0.4-1,1.2-1c0.2,0,0.5,0,0.8,0.1
			c0.1,0,0.4,0.2,0.5,0.5c0.1,0.2,0.4,0.5,0.5,0.5c0.4,0,0.5-0.6,0.5-1.8c0-0.5,0-1.4-0.1-2.5c-0.4,0.9-0.8,1.5-0.9,1.8
			c-0.4,0.5-0.9,0.8-1.4,0.8c-0.8,0-1.2-0.6-1.7-1.9C32.2,21.1,32,19.7,32,18c0-1.8,0.3-3.1,0.6-4.2c0.5-1.2,1.1-2,2-2
			c0.5,0,0.8,0.1,1,0.4c0.3,0.2,0.4,0.5,0.6,0.8c-0.1-0.5-0.1-0.9,0.1-1.1c0.1-0.1,0.4-0.2,0.6-0.2c0.2,0,0.5,0.1,0.8,0.2
			C38.1,11.5,38.2,11.7,38.4,12z M36.2,17.5c0-0.9,0-1.6-0.2-2.4c-0.2-0.9-0.5-1.2-0.9-1.2c-0.2,0-0.6,0.4-0.8,1.2s-0.4,1.5-0.4,2.4
			s0,1.8,0.1,2.4c0.1,0.9,0.4,1.2,0.6,1.2s0.5-0.4,0.9-1.2C36,19.1,36.2,18.4,36.2,17.5z"/>
		<path class="st2" d="M54.4,9.4c-0.1,0-0.2,0-0.4-0.1c-0.1-0.1-0.3-0.1-0.4-0.1l-1.8,0.6v11.5c0,0.4,0.1,0.9,0.3,1.4
			c0,0.1,0,0.4,0,0.9C52,24,52,24.2,51.8,24.4h-0.1c-0.4,0-0.9-0.1-1.6-0.3c-0.8-0.2-1.2-0.4-1.4-0.6c-0.1-0.2-0.1-0.6,0-1
			s0.2-0.6,0.2-0.9v-11L47.6,11c0,0-0.1,0.1-0.2,0.1c-0.1,0.1-0.2,0.1-0.4,0.1c-0.2-0.1-0.6-0.5-1.1-1.2c-0.5-0.8-0.6-1.2-0.6-1.6
			c0.1-0.4,0.4-0.6,0.9-0.8c0.1,0,0.2,0,0.5,0c0.1,0,0.4,0,0.5,0l6.1-2c0,0,0.2-0.1,0.5-0.2c0.1-0.1,0.4-0.1,0.5-0.1
			c0.4,0,0.5,0.2,0.6,0.5c0.1,0.1,0.1,0.5,0.2,1c0.1,0.6,0.1,1.1,0.1,1.5c0,0.4,0,0.6-0.1,0.8C55,9.2,54.7,9.4,54.4,9.4z"/>
		<path class="st3" d="M61.9,12.2c0.8,1,1.1,2.6,1.1,5c0,1.9-0.2,3.4-0.9,4.6c-0.6,1.5-1.5,2.1-2.5,2.1c-1.1,0-1.9-0.6-2.5-2
			c-0.5-1.1-0.8-2.6-0.8-4.4c0-1.5,0.2-2.9,0.6-4.1s1-2.1,1.6-2.4c0.4-0.1,0.7-0.1,1-0.1C60.5,11.2,61.2,11.6,61.9,12.2z M59.9,13.4
			c-0.4,0-0.8,0.4-1,1.4c-0.2,0.9-0.4,1.7-0.4,2.7c0,1.4,0,2.4,0.1,2.9c0.1,1,0.5,1.6,1,1.6c0.4,0,0.6-0.5,0.9-1.6
			c0.2-1.1,0.4-2.4,0.4-3.6C61,14.5,60.6,13.4,59.9,13.4z"/>
		<path class="st3" d="M70.9,12.2c0.8,1,1.1,2.6,1.1,5c0,1.9-0.2,3.4-0.9,4.6c-0.6,1.5-1.5,2.1-2.5,2.1c-1.1,0-1.9-0.6-2.5-2
			c-0.5-1.1-0.8-2.6-0.8-4.4c0-1.5,0.2-2.9,0.6-4.1s1-2.1,1.6-2.4c0.4-0.1,0.6-0.1,1-0.1C69.5,11.2,70.2,11.6,70.9,12.2z M68.9,13.4
			c-0.4,0-0.7,0.4-1,1.4c-0.3,0.9-0.4,1.7-0.4,2.7c0,1.4,0,2.4,0.1,2.9c0.1,1,0.5,1.6,1,1.6c0.4,0,0.6-0.5,0.9-1.6s0.4-2.4,0.4-3.6
			C70,14.5,69.6,13.4,68.9,13.4z"/>
		<path class="st3" d="M80.4,13.6c-0.1,0-0.2,0-0.4-0.1c-0.2-0.1-0.4-0.1-0.5-0.1s-0.1,0-0.2,0.1l-0.6,0.4v7.5
			c0,0.3,0.1,0.6,0.4,1.1c0.2,0.4,0.4,0.8,0.2,1c0,0.4-0.2,0.6-0.5,0.8c-0.2,0.2-0.6,0.2-0.9,0.2c-0.6,0-1-0.4-1.2-1
			c-0.1-0.3-0.1-0.9-0.1-2c0-0.8,0-1.9,0-3.4c0-1.8,0-2.9,0-3.4c-0.1,0-0.1,0.1-0.4,0.2c-0.1,0.1-0.4,0.2-0.5,0.2s-0.2,0-0.5-0.1
			c-0.9-0.4-1.2-0.8-1.2-1.1c0-0.1,0-0.1,0-0.2c0.1-0.2,0.2-0.4,0.5-0.4c0.4,0,0.5-0.1,0.6-0.1c0.2-0.1,0.8-0.5,1.5-1v-1.8
			c0-0.1,0-0.4-0.1-0.6c-0.1-0.2-0.1-0.4-0.1-0.5s0-0.2,0.1-0.4C76.8,8.3,77.3,8,77.7,8c0.6,0,1,0.2,1.2,0.9C79,9.2,79,9.4,79,9.6
			c0,0.1-0.1,0.4-0.2,0.5c-0.1,0.2-0.2,0.4-0.2,0.5v1.1c0.2-0.1,0.5-0.4,0.8-0.6s0.4-0.2,0.5-0.2c0,0,0.1,0,0.2,0
			c0.8,0.2,1.1,0.8,1.1,1.6c0,0.2-0.1,0.5-0.2,0.8S80.6,13.6,80.4,13.6z"/>
		<path class="st3" d="M90.1,21.7c0.1,0.4,0.1,0.6,0.1,0.8c0,0.2-0.1,0.5-0.4,0.8c-0.2,0.3-0.6,0.3-0.9,0.3c-0.5,0-0.9-0.3-1-0.8
			c0-0.2-0.1-0.4-0.1-0.5c0-0.3,0.1-0.4,0.2-0.6c0.1-0.3,0.2-0.4,0.2-0.6c0.1-0.8,0.2-1.9,0.2-3.3c0-2.5-0.1-3.7-0.4-3.7
			c-0.2,0-0.5,0.4-1,1.2c-0.5,0.9-0.9,2-1.2,3.1c-0.4,1.4-0.5,2.5-0.5,3.5c0,0.1,0,0.1,0,0.2s0,0.4,0.1,0.5c0.1,0.3,0.1,0.4,0.1,0.6
			c0,0.1,0,0.3-0.1,0.4c-0.4,0.6-0.6,0.9-1,0.9s-0.6-0.4-1-1c-0.1-0.4-0.2-2.5-0.2-6.5c0-1.5,0-4.8,0.1-10c0-0.1,0-0.2,0-0.4
			c0-0.1,0-0.4,0-0.4c0-0.1,0-0.2,0.1-0.4c0.1-0.2,0.4-0.5,0.9-0.5c0.4,0,0.8,0.1,1,0.4c0.2,0.2,0.4,0.5,0.4,0.9
			c0,0.1-0.1,0.2-0.1,0.2c-0.1,0.1-0.1,0.2-0.1,0.4v7c0.6-1.9,1.6-2.9,3-3c0.8,0,1.2,0.6,1.6,2c0.4,1.2,0.6,2.8,0.6,4.6
			C90.5,19.4,90.4,20.6,90.1,21.7z"/>
		<path class="st2" d="M107,16.1c0,0.6-0.2,1-0.6,1.1c-0.1,0-0.1,0-0.2-0.1h-0.1c-0.1,0-0.1,0-0.2,0.1c-0.5,2.1-0.8,3.6-1.1,4.4
			c-0.5,1.4-1.1,2.2-1.9,2.8c-0.2,0.1-0.4,0.1-0.6,0.1s-0.7-0.2-1.5-0.6c-0.4-0.1-0.8-0.2-1.5-0.6c-0.6-0.4-1.2-1.4-1.6-2.9
			c-0.4-1.4-0.5-3-0.5-4.8c0-2.4,0.2-4.5,0.7-6.4c0.8-2.1,1.5-3.4,2.5-3.5c0.1,0,0.1,0,0.2,0c0.6,0,1.2,0.2,2.1,0.8
			c0.9,0.5,1.5,1,1.9,1.6c0.2,0.5,0.4,1.1,0.5,1.9c0.1,0.9,0.1,1.2,0.2,1.4c0,0.2,0.1,0.5,0.1,0.9c0,0.2,0,0.4-0.1,0.6
			s-0.2,0.4-0.4,0.5c-0.1,0.1-0.6,0-1.4-0.4s-1.2-0.5-1.4-0.6c-0.2-0.1-0.2-0.5-0.2-1c0-0.1,0-0.1,0.1-0.2c0-0.1,0.1-0.2,0.1-0.2
			c0-1-0.1-1.5-0.2-1.5c-0.4,0-0.7,0.9-1,2.5c-0.2,1.6-0.4,3.2-0.4,5.1c0,2.8,0.2,4.4,0.9,4.7c0.1,0.1,0.5-0.2,0.8-1.2
			c0.2-1,0.5-1.7,0.6-2.6c-0.1-0.1-0.5-0.4-1.1-0.6c-0.4-0.2-0.6-0.4-0.6-0.6s0-0.5,0.1-0.9s0.4-0.6,0.5-0.8
			c0.1-0.1,0.4-0.1,0.8-0.2c0.5,0,0.8,0,0.8,0c0.2,0,0.5-0.1,1-0.4c0.4-0.1,0.6-0.2,0.9-0.2c0.1,0,0.1,0,0.2,0
			c0.2,0.1,0.8,0.4,1.2,1C107,15.7,107,15.9,107,16.1z"/>
		<path class="st3" d="M115.6,22.6c-0.1,0.8-0.6,1.1-1.2,1.1c-0.2,0-0.4,0-0.5-0.1s-0.4-0.5-0.4-1c-0.1-0.9-0.2-1.5-0.4-2
			c0,0.8-0.4,1.6-1,2.5s-1.4,1.2-2,1.2c-0.9,0-1.5-0.8-1.8-2.1c-0.1-0.5-0.1-1-0.1-1.5c0-1.4,0.5-2.5,1.6-3.5c0.9-0.6,1.9-1.4,2.7-2
			c0-0.2,0.1-0.5,0.1-0.8c0-0.5-0.1-0.8-0.2-0.8c-0.2-0.1-0.4-0.1-0.5-0.1c-0.2,0-0.5,0.1-0.6,0.2c-0.1,0.2-0.2,0.4-0.5,0.5
			c-0.1,0.1-0.4,0.4-0.5,0.8c-0.1,0.4-0.4,0.5-0.6,0.5s-0.6-0.1-0.9-0.4c-0.2-0.2-0.4-0.6-0.4-1.1c0-0.2,0-0.5,0.1-0.6
			c0.2-0.5,0.6-1,1.2-1.5c0.9-0.6,1.9-0.9,3.1-0.9c0.8,0,1.4,0.5,1.6,1.4c0.1,0.6,0.4,1.7,0.4,3.5c0.1,2.1,0.2,3.6,0.4,4.6
			c0,0.3,0.1,0.4,0.2,0.8c0.1,0.2,0.2,0.5,0.2,0.8C115.6,22.5,115.6,22.5,115.6,22.6z M112.6,17.2c-0.4,0.2-0.7,0.5-1,0.8
			c-0.3,0.2-0.6,0.6-1,1c-0.4,0.6-0.6,1.1-0.6,1.5s0.1,0.8,0.4,1.1c0.1,0.3,0.2,0.3,0.4,0.3c0.2,0,0.6-0.4,1-1.2
			C112,19.7,112.4,18.6,112.6,17.2z"/>
		<path class="st3" d="M129.1,23.6c-0.1,0.5-0.5,0.8-1,0.8c-0.6,0-1.1-0.3-1.5-0.9c-0.1-0.4-0.2-1.4-0.2-3.2c0-0.2,0-0.6,0-1.1
			s0-0.9,0-1.1c0-1,0-1.5-0.1-1.6s-0.8,2-1.8,6.1c0,0,0,0.4-0.1,1c0,0.4-0.1,0.8-0.4,0.9c-0.1,0.1-0.2,0.2-0.5,0.2
			c-0.4,0-0.6-0.1-1-0.4c-0.4-0.2-0.5-0.6-0.6-1c-0.1-0.5-0.1-1.6-0.1-3.2c0-2.4,0-3.4,0-3.4c0-0.6,0-0.9-0.1-1
			c-0.2,0.5-0.5,1.1-0.8,1.6c-0.5,1.3-0.7,2.2-0.9,3.1c0,0.1-0.1,0.5,0,1c0,0.5,0,0.8-0.1,0.9s-0.4,0.2-0.6,0.2s-0.6-0.1-0.9-0.2
			c-0.2-0.1-0.5-0.4-0.6-0.6c-0.1-0.4-0.2-1.4-0.4-3.3c0-1.7,0-3.5,0-5.1c0-0.1,0-0.4-0.1-0.6c-0.1-0.2-0.1-0.5-0.1-0.6
			s0-0.2,0.1-0.4s0.5-0.4,1.1-0.4c0.7,0,1.2,0.2,1.4,0.8c0,0.1,0,0.2,0,0.2c0,0.1,0,0.4-0.1,0.6c-0.1,0.2-0.1,0.5-0.1,0.6V16
			c0.4-0.9,0.8-2.1,1.4-3.5c0.1-0.2,0.1-0.4,0.2-0.6s0.1-0.4,0.2-0.5s0.4-0.2,0.6-0.2c0.5,0,0.9,0.1,1.4,0.4c0.5,0.2,0.8,0.6,0.8,1
			s0,0.6-0.1,0.9c-0.1,0.2-0.1,0.4-0.1,0.5v4.8c0.1-0.5,0.5-1.8,1-3.8c0.4-1.5,0.6-2.4,0.9-2.5c0.2-0.2,0.6-0.4,1.1-0.4
			c0.9,0,1.4,0.4,1.5,1c0,1.8,0,4.8,0,8.9c0,0.1,0.1,0.4,0.4,0.6c0.2,0.2,0.4,0.5,0.4,0.8C129.2,23.2,129.1,23.4,129.1,23.6z"/>
		<path class="st3" d="M137.1,21.2c-0.1,0.5-0.4,1.1-1,1.7c-0.1,0.1-0.4,0.4-1,0.6c-0.6,0.3-1.2,0.4-1.6,0.4
			c-0.9-0.1-1.5-0.8-2.1-1.9c-0.5-1.1-0.6-2.4-0.6-4c0-1.8,0.2-3.2,0.8-4.5c0.6-1.4,1.4-2.2,2.2-2.4c0.1,0,0.4,0,0.5,0
			c1.4,0,2.1,1.1,2.3,3.3c0.1,1-0.2,2-0.9,3.2c-0.8,1.2-1.8,2.1-2.9,2.6c0.1,0.6,0.2,1,0.2,1.1c0.1,0.4,0.4,0.5,0.6,0.5
			c0.2,0,0.5-0.1,0.9-0.4c0.2-0.2,0.4-0.4,0.5-0.6c0,0,0.1-0.2,0.1-0.5s0.1-0.5,0.4-0.6c0.1,0,0.1-0.1,0.2-0.1
			c0.2,0,0.5,0.1,0.9,0.5C137,20.6,137.1,20.9,137.1,21.2z M134.4,13.6c-0.5,0-0.9,0.4-1.1,1.2c-0.4,1.1-0.5,2.2-0.5,3.2
			c0.5-0.2,1-0.8,1.5-1.5c0.5-0.8,0.8-1.5,0.8-2.1C134.9,13.9,134.8,13.6,134.4,13.6z"/>
		<path class="st3" d="M146,12.4c0,0.2-0.2,0.5-0.6,0.6c-0.5,0.1-0.8,0.4-0.9,0.5l-2.9,4.1V21c0,0.4,0.1,0.6,0.2,1
			c0.1,0.4,0.2,0.6,0.2,0.8s0,0.4-0.1,0.6c-0.2,0.5-0.6,0.9-1.2,0.9c-0.4,0-0.8-0.1-1-0.5c-0.1-0.3-0.2-0.5-0.2-0.9
			c0-0.1,0-0.2,0-0.6s0-0.5,0-0.6v-8.2c0-0.1,0-0.2-0.1-0.5s-0.1-0.4-0.1-0.5s0-0.2,0.1-0.2c0.1-0.4,0.6-0.5,1.4-0.5
			c0.6,0,1,0.1,1,0.5c0,0.1,0,0.2,0,0.4c0,0.1,0,0.2-0.1,0.4c-0.1,0.1-0.1,0.1-0.1,0.2v0.8l1.5-2c0.1-0.2,0.4-0.5,0.5-0.8
			c0.2-0.2,0.4-0.4,0.6-0.4c0.4,0,0.8,0.1,1.1,0.4c0.4,0.2,0.5,0.6,0.5,1C146,12.2,146,12.4,146,12.4z"/>
	</g>
</g>
</svg>
